name processed_emg_signals
nRows=82
nColumns=7
 
endheader
time	RGLTMED	RRF	RADDLONG	RST	RTA	RGM
0.0	0.0067429410288845	0.0051050308719409	0.0075864631158132	0.0223777013393014	0.0150734259892933	0.0319553960568345
0.001	0.0074515699934678	0.0030368775286511	0.0084150535568332	0.0207144375220021	0.0190505529334427	0.0269950104326823
0.002	0.0081613290640372	0.0009782059288869	0.0092449950204123	0.0190243105883483	0.0230576800592106	0.0220190055471862
0.003	0.0088717765836071	0.0010696915005768	0.0100757592731233	0.01730702495076	0.0270934199726089	0.0170300310000875
0.004	0.0095824690137361	0.0031055340078599	0.0109068148440444	0.0155622743031315	0.0311563792653955	0.0120307535421982
0.005	0.0102929615511611	0.0051280543237962	0.0117376277128043	0.0137897416370243	0.0352451606217803	0.00702385404463
0.006	0.0110028087458442	0.0071360004382861	0.0125676620033034	0.0119890993145356	0.0393583649164026	0.002012024486694
0.007	0.0117115651186964	0.0091281373403511	0.0133963806814735	0.0101600092002476	0.0434945932979966	0.0030020350294499
0.008	0.01241878577742	0.011103248717511	0.0142232462554822	0.0083021228543929	0.047652449253543	0.0080156192307259
0.009000000000000001	0.0131240270291103	0.0130601386105795	0.0150477214767855	0.006415081789099	0.0518305406477465	0.0130260205860941
0.01	0.0138268469883305	0.0149976330204665	0.0158692700405622	0.0044985177893303	0.0560274817328473	0.0180305321758682
0.011	0.0145268061795654	0.0169145814638719	0.0166873572841036	0.0025520532999463	0.0602418951237362	0.0230264505135546
0.012	0.0152234681329117	0.018809858474991	0.017501450881806	0.0005753018800591	0.0644724137332923	0.0280110783172367
0.013000000000000001	0.0159163999719939	0.0206823650504907	0.0183110215355135	0.0014321312744496	0.0687176826628595	0.0329817272283009
0.014	0.0166051729931333	0.0225310300349953	0.019115543658855	0.0034706487395798	0.0729763610428599	0.0379357204761333
0.015	0.017289363234722	0.0243548114444565	0.0199144960543718	0.0055406602027306	0.0772471238185973	0.0428703954880137
0.016	0.0179685520358704	0.026152697724772	0.0207073625821248	0.0076425817329534	0.0815286634766365	0.047783106444085
0.017	0.018642326583277	0.0279237089432227	0.0214936328186272	0.0097768349821186	0.0858196917072704	0.0526712267777069
0.018000000000000002	0.0193102804453601	0.0296668979104284	0.0222728027049564	0.0119438463173361	0.0901189409988137	0.0575321516217978
0.019	0.0199720140926267	0.0313813512307991	0.0230443751830013	0.0141440458853061	0.0944251661594805	0.0623633002020748
0.02	0.0206271354033478	0.0330661902797081	0.0238078608188859	0.016377866609387	0.0987371457626467	0.0671621181782562
0.021	0.0212752601536194	0.0347205721060085	0.0245627784126837	0.0186457431204021	0.103053683511316	0.0719260799343589
0.022	0.0219160124909598	0.0363436902587912	0.0253086555936039	0.0209481106223471	0.1073736095176112	0.0766526908192584
0.023	0.0225490253907022	0.0379347755376064	0.0260450293998626	0.0232854036944846	0.1116957814932125	0.0813394893385477
0.024	0.0231739410945475	0.0394930966655525	0.0267714468424891	0.0256580550316359	0.1160190858466743	0.0859840492987015
0.025	0.0237904115307811	0.0410179608848376	0.0274874654523362	0.0280664941249345	0.1203424386834599	0.0905839819043459
0.026000000000000002	0.0243980987158361	0.0425087144746488	0.028192653809506	0.0305111458858319	0.1246647867044878	0.0951369378094308
0.027	0.0249966751368842	0.043964743191305	0.0288865920545162	0.0329924292165766	0.1289851079988076	0.0996406091229689
0.028	0.0255858241152913	0.0453854726309317	0.0295688723804374	0.035510755530837	0.1333024127261283	0.1040927313700036
0.029	0.0261652401507176	0.0467703685150305	0.0302390995053878	0.0380665272283671	0.1376157436849938	0.108491085408303
0.03	0.0267346292457125	0.0481189368997646	0.0308968911246968	0.0406601361278557	0.1419241767627111	0.1128334993011303
0.031	0.0272937092106266	0.0494307243101226	0.0315418783421175	0.0432919618622148	0.1462268212635208	0.1171178501462806
0.032	0.0278422099487082	0.0507053178005955	0.0321737060794391	0.0459623702406398	0.1505228201120746	0.1213420658613928
0.033	0.0283798737213121	0.0519423449443919	0.03279203346393	0.048671711581742	0.1548113499300128	0.1255041269254662
0.034	0.0289064553931164	0.0531414737534869	0.0333965341930232	0.0514203190220694	0.15909162098445	0.1296020680763108
0.035	0.0294217226573571	0.0543024125321981	0.0339868968757177	0.0542085068042993	0.1633628770082613	0.1336339799635951
0.036000000000000004	0.0299254562410385	0.055424909666979	0.0345628253503034	0.0570365685494925	0.1676243948932055	0.1375980107570013
0.037	0.0304174500901335	0.0565087533552656	0.0351240389780834	0.0599047755179338	0.1718754842580412	0.1414923677089219
0.038	0.0308975115348745	0.0575537712762014	0.0356702729129806	0.062813374863226	0.1761154868946668	0.1453153186711183
0.039	0.0313654614352593	0.0585598302060362	0.0362012783470144	0.0657625878843836	0.1803437760962401	0.1490651935646584
0.04	0.0318211343069448	0.059526835580941	0.0367168227316978	0.0687526082806907	0.1845597558716518	0.1527403858024775
0.041	0.0322643784277738	0.0604547310098341	0.0372166899755344	0.0717836004140395	0.1887628600510611	0.1563393536638783
0.042	0.0326950559251531	0.0613434977397488	0.0377006806177062	0.0748556975832886	0.1929525512871642	0.1598606216204146
0.043000000000000003	0.0331130428446013	0.0621931540761549	0.0381686119781147	0.0779690003150559	0.1971283199568771	0.1633027816126283
0.044	0.0335182291997313	0.063003754760656	0.0386203182839551	0.0811235746751551	0.2012896829680536	0.166664494277195
0.045	0.0339105190040162	0.0637753903085237	0.0390556507730278	0.0843194506046458	0.205436182475682	0.1699444901239253
0.046	0.0342898302847451	0.0645081863086273	0.0394744777741325	0.0875566202843263	0.2095673845119672	0.1731415706619727
0.047	0.0346560950795992	0.0652023026884205	0.0398766847649266	0.090835036531263	0.2136828775346089	0.1762546094744483
0.048	0.0350092594162571	0.0658579329467907	0.0402621744077473	0.094154611230898	0.2177822708975652	0.1792825532405118
0.049	0.0353492832755154	0.06647530335758	0.040630866564008	0.0975152138082938	0.2218651932487039	0.1822244227038078
0.05	0.0356761405384099	0.0670546721466044	0.040982698287754	0.1009166697423603	0.2259312908590984	0.185079313585983
0.051000000000000004	0.0359898189178936	0.0675963286449758	0.0413176237991016	0.1043587591270879	0.2299802258893455	0.187846397443874
0.052000000000000005	0.036290319875725	0.0681005924213344	0.0416356144381393	0.1078412152841351	0.2340116745989255	0.1905249224688736
0.053	0.0365776585252607	0.0685678123956282	0.0419366585999746	0.1113637234311018	0.2380253255051723	0.1931142142267484
0.054	0.0368518635208947	0.0689983659368085	0.0422207616514547	0.1149259194097943	0.2420208774986145	0.1956136763360868
0.055	0.0371129769348745	0.0693926579467641	0.0424879458301554	0.1185273884786905	0.2459980379214523	0.1980227910832465
0.056	0.0373610541221678	0.0697511199325919	0.0427382501261264	0.1221676641738811	0.2499565206156078	0.2003411199714905
0.057	0.0375961635740538	0.0700742090691727	0.0429717301468475	0.1258462272429009	0.2538960439466172	0.2025683042018256
0.058	0.0378183867610438	0.0703624072538969	0.0431884579659073	0.1295625046561742	0.2578163288092477	0.2047040650827061
0.059000000000000004	0.0380278179657994	0.0706162201553216	0.0433885219557891	0.1333158687008067	0.261717096620343	0.2067482043656226
0.06	0.0382245641067441	0.0708361762575197	0.0435720266052884	0.1371056361614291	0.2655980673036895	0.2087006045033072
0.061	0.0384087445530599	0.0710228259017952	0.0437390923218931	0.140931067592596	0.2694589572711604	0.2105612288273565
0.062	0.0385804909317292	0.0711767403274458	0.0438898552196142	0.1447913666869482	0.2732994774036361	0.2123301216420794
0.063	0.0387399469272323	0.0712985107131	0.0440244668926172	0.1486856797429979	0.2771193310350631	0.2140074082316999
0.064	0.0388872680744063	0.0713887472201749	0.0441430941750062	0.1526130952360118	0.2809182119427962	0.2155932947781695
0.065	0.0390226215449087	0.0714480780397142	0.0442459188870527	0.1565726434949695	0.28469580234768	0.2170880681869187
0.066	0.0391461859276333	0.0714771484438767	0.0443331375681464	0.1605632964880563	0.28845177092788	0.2184920958177752
0.067	0.0392581510034458	0.0714766198430201	0.0444049611967665	0.1645839677186453	0.292185770851456	0.2198058251181652
0.068	0.0393587175145226	0.0714471688492845	0.04446161489779	0.1686335122331737	0.295897437833897	0.2210297831555581
0.069	0.0394480969286329	0.071389486347417	0.0445033376374939	0.1727107267417515	0.2995863882279354	0.2221645760461492
0.07	0.0395265111987733	0.0713042765736203	0.044530381906652	0.1768143498518647	0.3032522171537954	0.2232108882766879
0.07100000000000001	0.0395941925184711	0.0711922562031989	0.0445430133920989	0.180943062415004	0.3068944966783681	0.224169481916496
0.07200000000000001	0.0396513830731949	0.0710541534480059	0.0445415106372213	0.1850954879855819	0.3105127740518532	0.2250411957168761
0.073	0.039698334788215	0.0708907071645848	0.0445261646917944	0.1892701933910835	0.3141065700100754	0.2258269440954852
0.074	0.0397353090732517	0.0707026659740955	0.0444972787517527	0.1934656894119187	0.3176753771503357	0.2265277160040427
0.075	0.0397625765642293	0.0704907873949841	0.0444551677894509	0.1976804315690352	0.3212186583880009	0.2271445736788533
0.076	0.0397804168624353	0.0702558369894005	0.0444001581751871	0.2019128210170754	0.3247358455004651	0.2276786512749658
0.077	0.0397891182713824	0.0699985875244825	0.0443325872906532	0.2061612055407461	0.3282263377642404	0.228131153386151
0.078	0.0397889775316419	0.069719818149534	0.0442528031351429	0.2104238806520149	0.3316895006904025	0.2285033534539484
0.079	0.0397802995539282	0.0694203135902759	0.0441611639252593	0.2146990907857194	0.3351246648630867	0.2287965920698717
0.08	0.0397633971506867	0.0691008633611831	0.0440580376888017	0.2189850305912368	0.3385311248852753	0.2290122751755727
0.081	0.0397385907665254	0.0687622609970037	0.0439438018534871	0.2232798463177591	0.3419081384355818	0.2291518721662798
